<svg width="96" height="96" viewBox="0 0 96 96" fill="none" xmlns="http://www.w3.org/2000/svg">
<path d="M12.6533 56.5546L12.6533 56.5546L12.6572 56.558C16.8064 60.2202 22.5351 62.0202 29.778 62.0202H41.6564V78V78.5H42.1564H51.5494H52.0494V78V62.0202H52.0523L52.0494 61.5186V61.3746H65.2241L78.9287 78.3145L79.0788 78.5H79.3174H91H91.9999L91.4 77.7L74.8225 55.5945L91.3777 36.5113L92.0957 35.6836H91H79.3174H79.1023L78.9544 35.8398L63.2149 52.4567H52.0494V36.1836V35.6836L51.9008 35.6836L51.5494 35.6836L51.4036 35.6836L42.1564 35.6836H41.6564L29.2497 35.6836H28.755L28.7497 36.1783L28.6717 43.4247L28.6663 43.9301H29.1717H41.6564V53.3372H29.2615C25.1984 53.1438 22.1878 51.998 20.153 49.9663C18.1292 47.9067 17.0691 44.6961 17.0691 40.2308C17.0691 35.5364 18.2629 32.2437 20.539 30.2255C22.8743 28.1897 26.5276 27.1243 31.5979 27.1243H53.2606H53.7606V26.6243V19V18.5H53.2606H30.9522C23.0938 18.5 17.0092 20.3143 12.7764 24.0192C8.56744 27.6984 6.5 33.1331 6.5 40.2308C6.5 47.3638 8.52596 52.8356 12.6533 56.5546Z" fill="#7E50FE" stroke="black"/>
<path d="M36.6564 62.0287L24.778 62.0202L36.6564 62.0287ZM36.6564 62.0287V78V78.5H37.1564H46.5494H47.0494V78V62.0362L47.0523 62.0362L47.0494 61.5343V61.3746H60.2241L73.9287 78.3145L74.0788 78.5H74.3174H86H86.9999L86.4 77.7L69.8225 55.5945L86.3777 36.5113L87.0957 35.6836H86H74.3174H74.1023L73.9544 35.8398L58.2149 52.4567H47.0494V36.1836V35.6836L46.9008 35.6836L46.5494 35.6836L46.4036 35.6836L37.1564 35.6836H36.6564L24.2497 35.6836H23.755L23.7497 36.1783L23.6717 43.4247L23.6663 43.9301H24.1717H36.6564V53.3372H24.2615C20.1984 53.1438 17.1878 51.998 15.153 49.9663C13.1292 47.9067 12.0691 44.6961 12.0691 40.2308C12.0691 35.5364 13.2629 32.2437 15.539 30.2255C17.8743 28.1897 21.5276 27.1243 26.5979 27.1243H48.2606H48.7606V26.6243V19V18.5H48.2606H25.9522C18.0938 18.5 12.0092 20.3143 7.77639 24.0192C3.56744 27.6984 1.5 33.1331 1.5 40.2308C1.5 47.3638 3.52596 52.8356 7.65334 56.5546L7.65332 56.5546L7.65717 56.558C11.8063 60.2202 17.5349 62.0201 24.7777 62.0202L36.6564 62.0287Z" fill="#FF6B4A" stroke="black"/>
</svg>
